<?xml version="1.0" standalone="no"?>
<!DOCTYPE svg PUBLIC "-//W3C//DTD SVG 20010904//EN"
 "http://www.w3.org/TR/2001/REC-SVG-20010904/DTD/svg10.dtd">
<svg version="1.0" xmlns="http://www.w3.org/2000/svg"
 width="512.000000pt" height="512.000000pt" viewBox="0 0 512.000000 512.000000"
 preserveAspectRatio="xMidYMid meet">
<metadata>
Created by potrace 1.13, written by Peter Selinger 2001-2015
</metadata>
<g transform="translate(0.000000,512.000000) scale(0.100000,-0.100000)"
fill="#000000" stroke="none">
<path d="M3931 4675 c-71 -16 -179 -63 -228 -101 -29 -22 -40 -24 -143 -24
-364 0 -652 -189 -668 -438 -4 -68 -2 -77 32 -147 47 -94 119 -161 241 -221
113 -55 220 -83 353 -91 102 -6 104 -7 150 -45 107 -90 250 -140 397 -140 151
-1 284 47 404 143 55 45 67 50 135 59 112 14 163 28 253 71 96 46 177 119 214
194 36 74 34 179 -4 257 -67 137 -243 240 -452 264 -55 7 -65 12 -124 66 -150
137 -364 195 -560 153z m247 -120 c97 -23 178 -69 255 -146 64 -65 71 -69 113
-69 71 0 192 -29 256 -61 328 -165 176 -457 -255 -494 -75 -7 -81 -9 -120 -47
-60 -59 -133 -104 -207 -128 -55 -19 -81 -22 -176 -18 -102 4 -116 7 -187 40
-42 20 -99 58 -127 84 l-50 47 -125 8 c-191 12 -342 63 -448 150 -53 44 -97
124 -97 177 0 92 86 198 212 260 103 51 218 73 362 71 l123 -1 44 32 c134 97
279 130 427 95z"/>
<path d="M2517 4110 c-609 -56 -1142 -465 -1377 -1058 -50 -127 -85 -261 -108
-415 l-17 -118 -60 88 c-49 72 -65 89 -88 91 -35 4 -67 -22 -67 -53 0 -13 56
-105 124 -206 165 -246 148 -245 298 -22 62 92 119 178 126 191 17 30 8 68
-19 83 -39 20 -66 2 -120 -79 -71 -105 -72 -106 -64 -42 65 548 364 1001 825
1252 163 89 381 153 569 167 61 4 113 10 115 12 2 2 6 29 7 59 3 55 3 55 -26
56 -17 1 -70 -2 -118 -6z"/>
<path d="M4018 3278 c-32 -26 -259 -373 -256 -392 4 -28 51 -60 76 -51 12 3
49 45 82 93 l60 86 0 -270 c0 -302 2 -314 64 -314 17 0 37 5 44 12 9 9 12 87
12 290 0 153 3 278 8 278 4 -1 32 -38 62 -83 48 -72 59 -82 88 -85 18 -2 40 2
48 9 32 27 16 66 -102 241 -116 171 -137 198 -159 198 -6 0 -18 -6 -27 -12z"/>
<path d="M3880 2214 c-139 -27 -261 -92 -365 -198 -92 -93 -143 -184 -175
-310 -89 -353 139 -727 493 -811 81 -19 247 -19 322 0 263 67 464 289 505 560
21 137 2 250 -66 392 -34 72 -59 107 -116 165 -134 137 -276 199 -463 204 -60
1 -121 0 -135 -2z m238 -129 c286 -68 472 -349 419 -633 -23 -117 -68 -203
-152 -287 -114 -115 -234 -165 -396 -165 -157 0 -283 55 -396 172 -109 114
-160 252 -150 408 9 149 68 273 178 374 132 123 321 172 497 131z"/>
<path d="M3699 1861 c-40 -40 -40 -89 0 -133 24 -27 36 -33 71 -33 35 0 47 6
71 33 40 44 40 93 0 133 -23 23 -38 29 -71 29 -33 0 -48 -6 -71 -29z"/>
<path d="M4146 1859 c-45 -53 -33 -125 26 -155 85 -44 178 49 134 134 -20 39
-44 52 -94 52 -33 0 -45 -6 -66 -31z"/>
<path d="M4290 1442 c0 -23 -49 -99 -86 -134 -71 -66 -204 -94 -306 -64 -78
22 -149 81 -183 150 -27 55 -39 63 -76 48 -16 -6 -15 -11 2 -59 28 -73 99
-144 184 -185 64 -30 78 -33 165 -33 129 1 193 26 276 109 61 62 103 139 91
171 -9 23 -67 20 -67 -3z"/>
<path d="M970 2184 c-125 -27 -254 -106 -341 -211 -71 -86 -129 -233 -129
-330 l0 -43 60 0 60 0 0 33 c1 148 117 320 264 392 40 20 102 40 144 47 252
42 505 -143 545 -401 l11 -71 58 0 58 0 0 33 c0 55 -37 184 -72 250 -48 92
-166 206 -261 251 -130 63 -262 80 -397 50z"/>
<path d="M837 1932 c-10 -10 -17 -32 -17 -49 0 -65 82 -90 127 -39 28 33 29
46 2 80 -25 32 -86 37 -112 8z"/>
<path d="M1235 1930 c-58 -64 40 -153 105 -95 25 23 26 76 2 98 -26 24 -85 22
-107 -3z"/>
<path d="M2500 1763 c-11 -15 -18 -33 -15 -41 3 -7 5 -18 5 -23 0 -5 39 -35
87 -66 l86 -58 -284 -5 c-156 -3 -285 -7 -285 -8 -1 -1 -7 -15 -14 -32 -10
-25 -10 -34 4 -55 l16 -25 282 -2 283 -3 -88 -60 c-55 -37 -90 -67 -93 -82 -9
-32 20 -73 51 -73 30 0 379 230 395 260 7 13 7 26 1 38 -13 24 -367 262 -390
262 -11 0 -29 -12 -41 -27z"/>
<path d="M880 1760 c-22 -14 16 -59 76 -89 69 -35 187 -36 256 -2 49 23 88 63
88 87 0 19 -46 18 -53 -1 -12 -31 -89 -59 -162 -59 -73 0 -150 28 -162 59 -6
17 -21 19 -43 5z"/>
<path d="M490 1491 l0 -88 -67 -33 c-119 -58 -233 -199 -274 -338 -8 -29 -21
-48 -38 -57 -51 -26 -74 -61 -79 -118 -10 -119 89 -192 188 -138 72 38 99 147
52 211 l-22 29 21 55 c39 105 119 204 197 245 l22 12 0 -101 0 -100 605 0 605
0 0 95 c0 52 2 95 5 95 19 0 67 -36 112 -82 51 -55 83 -108 109 -180 12 -35
11 -42 -6 -71 -28 -45 -26 -115 3 -158 63 -95 183 -86 228 17 33 72 3 158 -66
191 -19 9 -35 23 -35 31 0 27 -68 158 -113 217 -48 65 -101 107 -184 149 l-53
26 0 90 0 90 -605 0 -605 0 0 -89z m1130 -166 l0 -175 -525 0 -525 0 0 175 0
175 525 0 525 0 0 -175z"/>
<path d="M503 983 c25 -282 265 -510 558 -530 107 -7 210 14 312 64 91 46 208
160 255 250 35 66 72 195 72 250 l0 33 -58 0 -58 0 -11 -70 c-16 -102 -61
-190 -136 -264 -156 -157 -373 -189 -569 -84 -137 73 -248 243 -248 380 l0 38
-61 0 -62 0 6 -67z"/>
</g>
</svg>
